<svg width="1024" height="1024" viewBox="0 0 1024 1024" fill="none" xmlns="http://www.w3.org/2000/svg">
<rect width="1024" height="1024" rx="150" fill="white"/>
<path d="M434.25 427.611C465.537 427.611 490.9 401.208 490.9 368.639C490.9 336.069 465.537 309.666 434.25 309.666C402.963 309.666 377.6 336.069 377.6 368.639C377.6 401.208 402.963 427.611 434.25 427.611Z" fill="#F58220"/>
<path d="M460.446 503.021C475.695 534.842 501.11 556.055 531.607 540.145L806.148 259.066C826.48 216.638 765.485 158.301 729.904 190.122L493.485 439.381C478.236 455.291 456.62 465.898 460.446 503.021Z" fill="#114E8B"/>
<path d="M578.45 549.303H944.1C975 549.303 967.275 524.111 967.275 476.928V235.678C951.825 203.512 928.65 191.722 897.75 207.805L732.95 384.722C670.603 448.995 666.547 455.781 604.2 520.054L578.45 549.303Z" fill="#114E8B"/>
<path d="M578.45 549.303H944.1C975 549.303 967.275 524.111 967.275 476.928V235.678C951.825 203.512 928.65 191.722 897.75 207.805L732.95 384.722C670.603 448.995 666.547 455.781 604.2 520.054L578.45 549.303Z" fill="#114E8B"/>
<path d="M383.068 191.432L82.3333 191.432C51.4333 191.432 59.1583 216.625 59.1583 263.807L59.1583 505.057C74.6083 537.224 97.7836 549.014 128.684 532.931L280.068 383.596C342.415 319.323 349.053 305.537 393.368 263.807C419.118 237.726 426.303 191.432 383.068 191.432Z" fill="#114E8B"/>
<path d="M63.9672 692C68.9005 706.667 74.5005 722.8 80.7672 740.4C87.0339 757.867 92.7672 773 97.9672 785.8C101.834 773.4 107.167 758.533 113.967 741.2C120.767 723.733 127.101 708 132.967 694C134.701 689.867 137.634 687.8 141.767 687.8C145.634 687.8 148.567 688.6 150.567 690.2C152.567 691.667 153.567 694.267 153.567 698C153.567 699.467 153.367 700.733 152.967 701.8C152.567 702.867 151.967 704.267 151.167 706C147.034 714.133 142.901 723.533 138.767 734.2C134.634 744.733 129.567 758.133 123.567 774.4C123.834 773.733 121.967 778.733 117.967 789.4L111.367 806.6C110.567 808.733 109.234 810.4 107.367 811.6C105.634 812.667 103.634 813.2 101.367 813.2C99.1005 813.2 96.5672 812.667 93.7672 811.6C91.1005 810.4 89.1672 809.2 87.9672 808C83.4339 799.333 77.6339 786.8 70.5672 770.4C63.6339 754 57.6339 738.867 52.5672 725L49.5672 716.8C47.5672 711.2 46.1005 706.933 45.1672 704C44.2339 700.933 43.7672 698.467 43.7672 696.6C43.7672 693.933 45.2339 691.8 48.1672 690.2C51.2339 688.6 54.1672 687.8 56.9672 687.8C58.4339 687.8 59.8339 688.133 61.1672 688.8C62.5005 689.467 63.4339 690.533 63.9672 692ZM256.272 810C254.539 807.733 253.072 805.267 251.872 802.6C250.672 799.8 249.405 796.467 248.072 792.6C247.805 791.933 247.005 789.933 245.672 786.6C244.472 783.267 243.072 780.4 241.472 778C233.072 779.2 226.205 779.8 220.872 779.8C217.939 779.8 214.672 779.733 211.072 779.6C207.605 779.333 205.005 779.2 203.272 779.2C196.605 778.667 191.272 778.4 187.272 778.4C185.672 780.533 184.272 782.8 183.072 785.2C182.005 787.6 180.605 791.2 178.872 796C176.472 802.933 174.405 807.867 172.672 810.8C171.472 812.8 169.139 813.8 165.672 813.8C162.739 813.8 160.005 813.2 157.472 812C155.072 810.667 153.872 808.867 153.872 806.6C154.939 801.533 156.605 796.2 158.872 790.6C161.272 784.867 164.672 777.267 169.072 767.8L177.072 748.2C181.472 737 185.472 727.4 189.072 719.4C192.805 711.4 197.672 701.933 203.672 691C204.472 689.4 205.805 688.067 207.672 687C209.539 685.8 211.605 685.2 213.872 685.2C216.405 685.2 218.205 685.4 219.272 685.8C220.472 686.067 221.405 686.6 222.072 687.4C222.739 688.067 223.739 689.533 225.072 691.8C229.605 698.867 233.472 706.133 236.672 713.6C240.005 721.067 244.205 731.4 249.272 744.6L253.472 755.2C257.205 764.8 260.405 772.867 263.072 779.4C265.872 785.8 268.939 791.667 272.272 797C274.405 800.467 275.472 802.867 275.472 804.2C275.472 807.4 274.472 809.867 272.472 811.6C270.605 813.2 268.139 814 265.072 814C261.205 814 258.272 812.667 256.272 810ZM235.672 761.6C233.539 757.067 230.472 749.2 226.472 738C222.339 726 218.205 716.467 214.072 709.4C211.539 715.8 207.805 724.067 202.872 734.2C199.539 740.467 195.739 749.533 191.472 761.4C200.005 762.467 209.205 763 219.072 763C226.139 763 231.672 762.533 235.672 761.6ZM303.202 686C305.735 686 308.002 686.667 310.002 688C312.135 689.333 313.402 691.667 313.802 695C315.402 705.533 316.402 716.067 316.802 726.6C317.335 737 317.602 748.8 317.602 762C317.602 767.6 317.135 777.8 316.202 792.6C322.068 793.133 326.602 793.4 329.802 793.4C332.068 793.4 337.202 793.067 345.202 792.4C349.868 791.733 353.935 791.4 357.402 791.4C360.602 791.4 363.535 791.733 366.202 792.4C368.868 792.933 371.602 793.867 374.402 795.2C377.202 796.8 378.602 799.267 378.602 802.6C378.602 805.267 377.735 807.667 376.002 809.8C374.402 811.933 372.468 813 370.202 813C368.602 813 366.068 812.733 362.602 812.2C356.335 811.267 350.335 810.8 344.602 810.8C342.735 810.8 340.602 810.933 338.202 811.2C335.935 811.333 334.268 811.4 333.202 811.4C330.002 811.8 326.802 812 323.602 812C317.068 812 311.202 811.667 306.002 811C303.335 810.733 300.668 809.733 298.002 808C295.335 806.133 294.002 803.467 294.002 800C294.002 798 294.268 792.867 294.802 784.6C295.735 770.867 296.202 760.4 296.202 753.2C296.202 747.6 295.935 741.733 295.402 735.6C294.868 729.467 294.535 725.6 294.402 724C293.202 712.667 292.602 703.333 292.602 696C292.602 692.533 293.402 690 295.002 688.4C296.735 686.8 299.468 686 303.202 686ZM483.978 716.8C483.311 716.267 481.178 714.733 477.578 712.2C473.978 709.533 470.511 707.667 467.178 706.6C463.845 705.4 460.311 704.8 456.578 704.8C450.845 704.8 445.378 705.533 440.178 707C434.978 708.333 430.511 710.4 426.778 713.2C415.845 721.2 410.378 734.867 410.378 754.2C410.378 762.6 412.378 770 416.378 776.4C420.378 782.667 425.511 787.467 431.778 790.8C438.045 794.133 444.511 795.8 451.178 795.8C457.845 795.8 463.645 794.8 468.578 792.8C473.511 790.667 477.445 787.933 480.378 784.6C482.778 781.533 484.378 778.133 485.178 774.4C485.978 770.533 486.378 766.333 486.378 761.8C486.378 760.467 485.311 759.533 483.178 759C481.045 758.467 477.978 758.2 473.978 758.2C471.978 758.2 468.445 758.333 463.378 758.6L454.178 759C450.311 759 447.245 758.267 444.978 756.8C442.711 755.333 441.578 753.4 441.578 751C441.578 744.867 445.511 741.8 453.378 741.8C459.778 741.8 466.511 742 473.578 742.4C482.378 742.667 488.378 742.8 491.578 742.8C496.245 742.8 499.978 744.267 502.778 747.2C505.711 750.133 507.178 754.4 507.178 760C507.178 765.333 506.045 771.467 503.778 778.4C501.511 785.2 498.378 791.333 494.378 796.8C490.378 802.133 484.578 806.2 476.978 809C469.378 811.667 460.778 813 451.178 813C443.311 813 435.578 811.733 427.978 809.2C420.511 806.667 414.311 803.133 409.378 798.6C403.245 792.867 398.378 786.067 394.778 778.2C391.311 770.2 389.578 762.267 389.578 754.4C389.578 742.667 392.045 731.467 396.978 720.8C401.911 710 408.911 701.6 417.978 695.6C421.978 692.933 427.778 690.733 435.378 689C443.111 687.267 450.045 686.4 456.178 686.4C474.445 686.4 487.445 691.933 495.178 703C496.778 705.4 497.578 707.533 497.578 709.4C497.578 711.533 496.645 713.533 494.778 715.4C492.911 717.267 491.045 718.2 489.178 718.2C488.378 718.2 487.445 718.067 486.378 717.8C485.311 717.533 484.511 717.2 483.978 716.8ZM629.664 695.6C629.664 698 627.597 701.533 623.464 706.2C618.531 711.8 605.664 729 584.864 757.8C585.131 775 585.664 786.8 586.464 793.2C586.864 797.2 587.064 800.067 587.064 801.8C587.064 806.2 586.264 809.2 584.664 810.8C583.197 812.267 580.597 813 576.864 813C574.064 813 571.397 812.2 568.864 810.6C566.464 808.867 565.264 806.8 565.264 804.4C565.264 794.667 565.064 780.4 564.664 761.6C564.664 760.8 564.131 759.467 563.064 757.6C561.997 755.733 561.331 754.533 561.064 754C558.264 749.067 554.731 743.6 550.464 737.6C546.331 731.467 542.731 726.867 539.664 723.8C533.797 717.933 529.197 712.667 525.864 708C522.531 703.2 520.864 699.8 520.864 697.8C520.864 695 522.131 692.8 524.664 691.2C527.331 689.467 530.197 688.6 533.264 688.6C534.997 688.6 536.797 689.067 538.664 690C540.664 690.933 542.264 692.267 543.464 694C551.331 705.733 558.331 715.467 564.464 723.2L573.864 735.4C579.597 729.533 584.597 723.733 588.864 718C593.264 712.133 598.064 705.2 603.264 697.2L606.664 692C609.197 688.533 613.131 686.8 618.464 686.8C620.997 686.8 623.464 687.533 625.864 689C628.397 690.467 629.664 692.667 629.664 695.6ZM736.531 779.8C741.598 784.867 745.598 789.267 748.531 793C751.598 796.6 753.131 799.733 753.131 802.4C753.131 806.133 752.065 808.933 749.931 810.8C747.931 812.667 745.398 813.6 742.331 813.6C740.198 813.6 737.998 812.533 735.731 810.4C733.465 808.267 731.398 806 729.531 803.6C727.665 801.2 726.465 799.667 725.931 799C722.865 795.267 716.865 787.8 707.931 776.6C699.131 765.267 692.998 757.133 689.531 752.2C688.465 752.867 686.865 754.2 684.731 756.2C683.931 756.867 681.865 758.6 678.531 761.4C675.198 764.067 671.531 766.8 667.531 769.6C667.531 770.4 667.731 776.4 668.131 787.6C668.398 795.867 668.531 801.267 668.531 803.8C668.531 805.933 667.798 808.133 666.331 810.4C664.865 812.533 662.665 813.6 659.731 813.6C655.465 813.6 652.398 812.867 650.531 811.4C648.665 809.933 647.531 807.8 647.131 805C646.065 798.6 645.531 792.267 645.531 786C645.531 779.067 646.065 768.933 647.131 755.6C648.198 743.067 648.731 733.667 648.731 727.4C648.731 725 648.598 721.533 648.331 717C648.198 713.4 647.798 710.067 647.131 707C646.598 702.733 646.331 699.733 646.331 698C646.331 693.733 647.265 690.667 649.131 688.8C650.998 686.933 653.865 686 657.731 686C660.665 686 663.065 686.867 664.931 688.6C666.931 690.2 668.065 692.4 668.331 695.2C668.998 706.533 669.331 715.333 669.331 721.6C669.198 724.667 668.931 729 668.531 734.6C668.265 740.067 667.998 743.6 667.731 745.2C672.398 741.733 681.731 733.6 695.731 720.8C709.865 707.867 719.331 699.133 724.131 694.6C724.798 693.933 725.931 692.8 727.531 691.2C729.265 689.467 730.865 688.267 732.331 687.6C733.798 686.933 735.398 686.6 737.131 686.6C739.531 686.6 741.598 687.733 743.331 690C745.198 692.133 746.131 694.467 746.131 697C746.131 698.467 745.531 700.067 744.331 701.8C743.265 703.4 741.331 705.6 738.531 708.4C728.798 718.533 717.998 729.067 706.131 740C709.198 744.933 714.265 752.067 721.331 761.4C728.531 770.6 733.598 776.733 736.531 779.8ZM781.327 686C787.06 686 790.393 689 791.327 695C792.927 706.333 793.727 720.267 793.727 736.8L793.527 762V769.6C793.527 777.867 793.327 785.533 792.927 792.6C798.527 793.133 803.527 793.4 807.927 793.4C811.793 793.4 816.927 793.267 823.327 793L835.527 792.8C839.26 792.8 842.327 793 844.727 793.4C847.26 793.667 849.86 794.467 852.527 795.8C855.327 797 856.727 799.267 856.727 802.6C856.727 805.267 855.86 807.667 854.127 809.8C852.527 811.933 850.593 813 848.327 813C846.727 813 844.193 812.733 840.727 812.2C834.46 811.267 828.46 810.8 822.727 810.8C820.86 810.8 818.727 810.933 816.327 811.2C814.06 811.333 812.393 811.4 811.327 811.4C808.127 811.8 804.927 812 801.727 812C795.193 812 789.327 811.667 784.127 811C781.46 810.733 778.793 809.733 776.127 808C773.46 806.133 772.127 803.467 772.127 800C772.127 795.867 772.327 790.733 772.727 784.6C773.26 772.867 773.527 762.4 773.527 753.2C773.527 747.867 773.327 742.133 772.927 736C772.527 729.867 772.26 725.867 772.127 724C771.193 713.067 770.727 703.733 770.727 696C770.727 692.533 771.527 690 773.127 688.4C774.86 686.8 777.593 686 781.327 686ZM963.303 810C961.57 807.733 960.103 805.267 958.903 802.6C957.703 799.8 956.436 796.467 955.103 792.6C954.836 791.933 954.036 789.933 952.703 786.6C951.503 783.267 950.103 780.4 948.503 778C940.103 779.2 933.236 779.8 927.903 779.8C924.97 779.8 921.703 779.733 918.103 779.6C914.636 779.333 912.036 779.2 910.303 779.2C903.636 778.667 898.303 778.4 894.303 778.4C892.703 780.533 891.303 782.8 890.103 785.2C889.036 787.6 887.636 791.2 885.903 796C883.503 802.933 881.436 807.867 879.703 810.8C878.503 812.8 876.17 813.8 872.703 813.8C869.77 813.8 867.036 813.2 864.503 812C862.103 810.667 860.903 808.867 860.903 806.6C861.97 801.533 863.636 796.2 865.903 790.6C868.303 784.867 871.703 777.267 876.103 767.8L884.103 748.2C888.503 737 892.503 727.4 896.103 719.4C899.836 711.4 904.703 701.933 910.703 691C911.503 689.4 912.836 688.067 914.703 687C916.57 685.8 918.636 685.2 920.903 685.2C923.436 685.2 925.236 685.4 926.303 685.8C927.503 686.067 928.436 686.6 929.103 687.4C929.77 688.067 930.77 689.533 932.103 691.8C936.636 698.867 940.503 706.133 943.703 713.6C947.036 721.067 951.236 731.4 956.303 744.6L960.503 755.2C964.236 764.8 967.436 772.867 970.103 779.4C972.903 785.8 975.97 791.667 979.303 797C981.436 800.467 982.503 802.867 982.503 804.2C982.503 807.4 981.503 809.867 979.503 811.6C977.636 813.2 975.17 814 972.103 814C968.236 814 965.303 812.667 963.303 810ZM942.703 761.6C940.57 757.067 937.503 749.2 933.503 738C929.37 726 925.236 716.467 921.103 709.4C918.57 715.8 914.836 724.067 909.903 734.2C906.57 740.467 902.77 749.533 898.503 761.4C907.036 762.467 916.236 763 926.103 763C933.17 763 938.703 762.533 942.703 761.6Z" fill="black"/>
</svg>
