<svg width="90" height="37" viewBox="0 0 90 37" fill="none" xmlns="http://www.w3.org/2000/svg">
<path d="M37.5 23.6389C40.5376 23.6389 43 21.108 43 17.9861C43 14.8641 40.5376 12.3333 37.5 12.3333C34.4624 12.3333 32 14.8641 32 17.9861C32 21.108 34.4624 23.6389 37.5 23.6389Z" fill="#F58220"/>
<path d="M40.0433 30.8673C41.5238 33.9175 43.9912 35.9509 46.9522 34.4258L73.6066 7.48297C75.5806 3.41612 69.6587 -2.17577 66.2043 0.874356L43.251 24.7671C41.7705 26.2921 39.6719 27.3088 40.0433 30.8673Z" fill="#114E8B"/>
<path d="M51.5 35.3037H87C90 35.3037 89.25 32.8889 89.25 28.3662V5.24118C87.75 2.15785 85.5 1.02774 82.5 2.56941L66.5 19.5278C60.4469 25.6886 60.0531 26.3391 54 32.5L51.5 35.3037Z" fill="#114E8B"/>
<path d="M32.5309 1L3.33334 1C0.333336 1 1.08334 3.4148 1.08334 7.9375L1.08334 31.0625C2.58334 34.1458 4.83336 35.2759 7.83336 33.7343L22.5309 19.4198C28.584 13.2589 29.2284 11.9375 33.5309 7.9375C36.0309 5.4375 36.7284 1 32.5309 1Z" fill="#114E8B"/>
</svg>
